<svg width="33" height="32" viewBox="0 0 33 32" fill="none" xmlns="http://www.w3.org/2000/svg">
<path d="M11.25 29H21.25M16.25 29V21M24.25 14C24.25 10.835 24.245 5.58563 24.2425 4C24.2425 3.73478 24.1371 3.48043 23.9496 3.29289C23.7621 3.10536 23.5077 3 23.2425 3L9.25562 3.01625C8.99095 3.01625 8.73707 3.12118 8.54962 3.30804C8.36217 3.4949 8.25645 3.74845 8.25562 4.01312C8.25562 5.92437 8.2475 12.0862 8.2475 14C8.2475 18.0175 13.435 21 16.2475 21C19.06 21 24.25 18.0175 24.25 14Z" stroke="#E8EAE8" stroke-width="2" stroke-linecap="round" stroke-linejoin="round"/>
<path d="M8.25 6H3.25V7C3.25 10.4513 5.34687 14 8.25 14M24.25 6H29.25V7C29.25 10.4513 27.1531 14 24.25 14" stroke="#E8EAE8" stroke-width="2" stroke-linecap="round" stroke-linejoin="round"/>
</svg>
