<svg width="33" height="32" viewBox="0 0 33 32" fill="none" xmlns="http://www.w3.org/2000/svg">
<path d="M16.75 5C16.2196 5 15.7109 5.21071 15.3358 5.58579C14.9607 5.96086 14.75 6.46957 14.75 7C14.75 7.53043 14.9607 8.03914 15.3358 8.41421C15.7109 8.78929 16.2196 9 16.75 9C17.2804 9 17.7891 8.78929 18.1642 8.41421C18.5393 8.03914 18.75 7.53043 18.75 7C18.75 6.46957 18.5393 5.96086 18.1642 5.58579C17.7891 5.21071 17.2804 5 16.75 5ZM12.75 7C12.75 5.93913 13.1714 4.92172 13.9216 4.17157C14.6717 3.42143 15.6891 3 16.75 3C17.8109 3 18.8283 3.42143 19.5784 4.17157C20.3286 4.92172 20.75 5.93913 20.75 7C20.75 8.06087 20.3286 9.07828 19.5784 9.82843C18.8283 10.5786 17.8109 11 16.75 11C15.6891 11 14.6717 10.5786 13.9216 9.82843C13.1714 9.07828 12.75 8.06087 12.75 7ZM26.25 6C25.8522 6 25.4706 6.15804 25.1893 6.43934C24.908 6.72064 24.75 7.10218 24.75 7.5C24.75 7.89782 24.908 8.27936 25.1893 8.56066C25.4706 8.84196 25.8522 9 26.25 9C26.6478 9 27.0294 8.84196 27.3107 8.56066C27.592 8.27936 27.75 7.89782 27.75 7.5C27.75 7.10218 27.592 6.72064 27.3107 6.43934C27.0294 6.15804 26.6478 6 26.25 6ZM22.75 7.5C22.75 7.04037 22.8405 6.58525 23.0164 6.16061C23.1923 5.73597 23.4501 5.35013 23.7751 5.02513C24.1001 4.70012 24.486 4.44231 24.9106 4.26642C25.3352 4.09053 25.7904 4 26.25 4C26.7096 4 27.1648 4.09053 27.5894 4.26642C28.014 4.44231 28.3999 4.70012 28.7249 5.02513C29.0499 5.35013 29.3077 5.73597 29.4836 6.16061C29.6595 6.58525 29.75 7.04037 29.75 7.5C29.75 8.42826 29.3813 9.3185 28.7249 9.97487C28.0685 10.6313 27.1783 11 26.25 11C25.3217 11 24.4315 10.6313 23.7751 9.97487C23.1187 9.3185 22.75 8.42826 22.75 7.5ZM5.75 7.5C5.75 7.10218 5.90804 6.72064 6.18934 6.43934C6.47064 6.15804 6.85218 6 7.25 6C7.64782 6 8.02936 6.15804 8.31066 6.43934C8.59196 6.72064 8.75 7.10218 8.75 7.5C8.75 7.89782 8.59196 8.27936 8.31066 8.56066C8.02936 8.84196 7.64782 9 7.25 9C6.85218 9 6.47064 8.84196 6.18934 8.56066C5.90804 8.27936 5.75 7.89782 5.75 7.5ZM7.25 4C6.32174 4 5.4315 4.36875 4.77513 5.02513C4.11875 5.6815 3.75 6.57174 3.75 7.5C3.75 8.42826 4.11875 9.3185 4.77513 9.97487C5.4315 10.6313 6.32174 11 7.25 11C8.17826 11 9.0685 10.6313 9.72487 9.97487C10.3813 9.3185 10.75 8.42826 10.75 7.5C10.75 6.57174 10.3813 5.6815 9.72487 5.02513C9.0685 4.36875 8.17826 4 7.25 4ZM9.401 24.505C8.94873 24.8031 8.42418 24.9732 7.88304 24.9972C7.34189 25.0212 6.80434 24.8983 6.32743 24.6414C5.85052 24.3846 5.45206 24.0034 5.17433 23.5383C4.8966 23.0733 4.74997 22.5417 4.75 22V15.5C4.75 15.3674 4.80268 15.2402 4.89645 15.1464C4.99022 15.0527 5.11739 15 5.25 15H9.281C9.37318 14.2681 9.66597 13.5759 10.127 13H5.25C4.58696 13 3.95107 13.2634 3.48223 13.7322C3.01339 14.2011 2.75 14.837 2.75 15.5V22C2.74974 22.8611 2.97186 23.7076 3.39484 24.4576C3.81782 25.2076 4.42732 25.8357 5.16431 26.281C5.90129 26.7263 6.74079 26.9737 7.60148 26.9993C8.46216 27.0249 9.31487 26.8277 10.077 26.427C9.76529 25.8201 9.53786 25.1734 9.401 24.505ZM23.423 26.427C24.1851 26.8277 25.0378 27.0249 25.8985 26.9993C26.7592 26.9737 27.5987 26.7263 28.3357 26.281C29.0727 25.8357 29.6822 25.2076 30.1052 24.4576C30.5281 23.7076 30.7503 22.8611 30.75 22V15.5C30.75 14.837 30.4866 14.2011 30.0178 13.7322C29.5489 13.2634 28.913 13 28.25 13H23.373C23.834 13.5759 24.1268 14.2681 24.219 15H28.25C28.3826 15 28.5098 15.0527 28.6036 15.1464C28.6973 15.2402 28.75 15.3674 28.75 15.5V22C28.75 22.5417 28.6034 23.0733 28.3257 23.5383C28.0479 24.0034 27.6495 24.3846 27.1726 24.6414C26.6957 24.8983 26.1581 25.0212 25.617 24.9972C25.0758 24.9732 24.5513 24.8031 24.099 24.505C23.9621 25.1734 23.7347 25.8201 23.423 26.427ZM13.25 13C12.587 13 11.9511 13.2634 11.4822 13.7322C11.0134 14.2011 10.75 14.837 10.75 15.5V23C10.75 24.5913 11.3821 26.1174 12.5074 27.2426C13.6326 28.3679 15.1587 29 16.75 29C18.3413 29 19.8674 28.3679 20.9926 27.2426C22.1179 26.1174 22.75 24.5913 22.75 23V15.5C22.75 14.837 22.4866 14.2011 22.0178 13.7322C21.5489 13.2634 20.913 13 20.25 13H13.25ZM12.75 15.5C12.75 15.3674 12.8027 15.2402 12.8964 15.1464C12.9902 15.0527 13.1174 15 13.25 15H20.25C20.3826 15 20.5098 15.0527 20.6036 15.1464C20.6973 15.2402 20.75 15.3674 20.75 15.5V23C20.75 24.0609 20.3286 25.0783 19.5784 25.8284C18.8283 26.5786 17.8109 27 16.75 27C15.6891 27 14.6717 26.5786 13.9216 25.8284C13.1714 25.0783 12.75 24.0609 12.75 23V15.5Z" fill="#E8EAE8"/>
</svg>
